<mxfile modified="2024-07-10T15:30:58.955Z" host="app.diagrams.net" agent="Mozilla/5.0 (Macintosh; Intel Mac OS X 10_15_7) AppleWebKit/537.36 (KHTML, like Gecko) Chrome/126.0.0.0 Safari/537.36 Edg/126.0.0.0" etag="C2B-kSL_xWm7A_HVLlzE" version="24.6.4" type="github">
  <diagram id="WI9T0HZ2pTsCkuznbFz-" name="Page-1">
    <mxGraphModel dx="2906" dy="1126" grid="1" gridSize="10" guides="1" tooltips="1" connect="1" arrows="1" fold="1" page="1" pageScale="1" pageWidth="1169" pageHeight="827" background="none" math="0" shadow="0">
      <root>
        <mxCell id="0" />
        <mxCell id="1" parent="0" />
        <mxCell id="-g1dHvpGHqxtaDHweXaw-47" value="Senario 4&#xa;No Automation" style="swimlane;startSize=0;swimlaneFillColor=default;verticalAlign=bottom;" vertex="1" parent="1">
          <mxGeometry x="770" y="80" width="207" height="550" as="geometry" />
        </mxCell>
        <mxCell id="-g1dHvpGHqxtaDHweXaw-48" value="" style="image;aspect=fixed;html=1;points=[];align=center;fontSize=12;image=img/lib/azure2/general/Subscriptions.svg;" vertex="1" parent="-g1dHvpGHqxtaDHweXaw-47">
          <mxGeometry x="20" y="10" width="18.59" height="30" as="geometry" />
        </mxCell>
        <mxCell id="-g1dHvpGHqxtaDHweXaw-51" value="Private Endpoint" style="image;aspect=fixed;html=1;points=[];align=center;fontSize=12;image=img/lib/azure2/other/Private_Endpoints.svg;" vertex="1" parent="-g1dHvpGHqxtaDHweXaw-47">
          <mxGeometry x="30" y="319" width="52.57" height="50" as="geometry" />
        </mxCell>
        <mxCell id="-g1dHvpGHqxtaDHweXaw-52" value="subnet" style="shape=image;verticalLabelPosition=bottom;labelBackgroundColor=#ffffff;verticalAlign=top;aspect=fixed;imageAspect=0;image=data:image/svg+xml,PHN2ZyB4bWxuczpjYz0iaHR0cDovL2NyZWF0aXZlY29tbW9ucy5vcmcvbnMjIiB4bWxuczpkYz0iaHR0cDovL3B1cmwub3JnL2RjL2VsZW1lbnRzLzEuMS8iIHhtbG5zOmlua3NjYXBlPSJodHRwOi8vd3d3Lmlua3NjYXBlLm9yZy9uYW1lc3BhY2VzL2lua3NjYXBlIiB4bWxuczpyZGY9Imh0dHA6Ly93d3cudzMub3JnLzE5OTkvMDIvMjItcmRmLXN5bnRheC1ucyMiIHhtbG5zOnNvZGlwb2RpPSJodHRwOi8vc29kaXBvZGkuc291cmNlZm9yZ2UubmV0L0RURC9zb2RpcG9kaS0wLmR0ZCIgeG1sbnM6c3ZnPSJodHRwOi8vd3d3LnczLm9yZy8yMDAwL3N2ZyIgeG1sbnM9Imh0dHA6Ly93d3cudzMub3JnLzIwMDAvc3ZnIiB4bWxuczp4bGluaz0iaHR0cDovL3d3dy53My5vcmcvMTk5OS94bGluayIgdmVyc2lvbj0iMS4xIiBpZD0ic3ZnMjY1OSIgaW5rc2NhcGU6dmVyc2lvbj0iMC45Mi4zICgyNDA1NTQ2LCAyMDE4LTAzLTExKSIgc29kaXBvZGk6ZG9jbmFtZT0ic3VibmV0cy5zdmciIHg9IjBweCIgeT0iMHB4IiB2aWV3Qm94PSIwIDAgMzQuODQgMjEuNjEiIHN0eWxlPSJlbmFibGUtYmFja2dyb3VuZDpuZXcgMCAwIDM0Ljg0IDIxLjYxOyIgeG1sOnNwYWNlPSJwcmVzZXJ2ZSI+JiN4YTs8c29kaXBvZGk6bmFtZWR2aWV3IGJvcmRlcmNvbG9yPSIjNjY2NjY2IiBib3JkZXJvcGFjaXR5PSIxIiBmaXQtbWFyZ2luLWJvdHRvbT0iMCIgZml0LW1hcmdpbi1sZWZ0PSIwIiBmaXQtbWFyZ2luLXJpZ2h0PSIwIiBmaXQtbWFyZ2luLXRvcD0iMCIgZ3JpZHRvbGVyYW5jZT0iMTAiIGd1aWRldG9sZXJhbmNlPSIxMCIgaWQ9Im5hbWVkdmlldzI2NjEiIGlua3NjYXBlOmN1cnJlbnQtbGF5ZXI9InN2ZzI2NTkiIGlua3NjYXBlOmN4PSIyMy4yMjU5OTEiIGlua3NjYXBlOmN5PSIxNC40MDc5OTQiIGlua3NjYXBlOnBhZ2VvcGFjaXR5PSIwIiBpbmtzY2FwZTpwYWdlc2hhZG93PSIyIiBpbmtzY2FwZTp3aW5kb3ctaGVpZ2h0PSIxMDE3IiBpbmtzY2FwZTp3aW5kb3ctbWF4aW1pemVkPSIxIiBpbmtzY2FwZTp3aW5kb3ctd2lkdGg9IjE5MjAiIGlua3NjYXBlOndpbmRvdy14PSItOCIgaW5rc2NhcGU6d2luZG93LXk9Ii04IiBpbmtzY2FwZTp6b29tPSIzMC4wOTMwMzMiIG9iamVjdHRvbGVyYW5jZT0iMTAiIHBhZ2Vjb2xvcj0iI2ZmZmZmZiIgc2hvd2dyaWQ9ImZhbHNlIj4mI3hhOwk8L3NvZGlwb2RpOm5hbWVkdmlldz4mI3hhOzxnIGlkPSJnMjY1NyIgdHJhbnNmb3JtPSJ0cmFuc2xhdGUoLTQuMjMzMTc0OWUtNSkiPiYjeGE7CTx0aXRsZSBpZD0idGl0bGUyNjM3Ij5QYWdlLTE8L3RpdGxlPiYjeGE7CTxnIGlkPSJncm91cDk1MjItMSI+JiN4YTsJCTx0aXRsZSBpZD0idGl0bGUyNjM5Ij5TdWJuZXRzPC90aXRsZT4mI3hhOwkJPGcgaWQ9InNoYXBlOTUyMy0yIiB0cmFuc2Zvcm09InRyYW5zbGF0ZSgyMi42MTMpIj4mI3hhOwkJCTx0aXRsZSBpZD0idGl0bGUyNjQxIj5TaGVldC45NTIzPC90aXRsZT4mI3hhOwkJCTxwYXRoIGlkPSJwYXRoMjY0MyIgaW5rc2NhcGU6Y29ubmVjdG9yLWN1cnZhdHVyZT0iMCIgc3R5bGU9ImZpbGw6IzM5OTlDNjsiIGQ9Ik0xMi4yMywxMC42OEw5Ljg0LDguMjlMMS4zOSwwTDAsMS4yNmw5LjU4LDkuNDIgICAgIEwwLDIwLjM1bDEuMzksMS4yNmw4LjQ1LTguM0wxMi4yMywxMC42OHoiLz4mI3hhOwkJPC9nPiYjeGE7CQk8ZyBpZD0ic2hhcGU5NTI0LTQiPiYjeGE7CQkJPHRpdGxlIGlkPSJ0aXRsZTI2NDYiPlNoZWV0Ljk1MjQ8L3RpdGxlPiYjeGE7CQkJPHBhdGggaWQ9InBhdGgyNjQ4IiBpbmtzY2FwZTpjb25uZWN0b3ItY3VydmF0dXJlPSIwIiBzdHlsZT0iZmlsbDojMzk5OUM2OyIgZD0iTTAsMTAuNjhsMi4zOS0yLjM5TDEwLjg0LDBsMS4zOSwxLjI2bC05LjU4LDkuNDIgICAgIGw5LjU4LDkuNjdsLTEuMzksMS4yNmwtOC40NS04LjNMMCwxMC42OHoiLz4mI3hhOwkJPC9nPiYjeGE7CQk8ZyBpZD0ic2hhcGU5NTI1LTYiIHRyYW5zZm9ybT0idHJhbnNsYXRlKDE0Ljg2ODUsLTguNTMxOTcpIj4mI3hhOwkJCTx0aXRsZSBpZD0idGl0bGUyNjUxIj5TaGVldC45NTI1PC90aXRsZT4mI3hhOwkJCTxwYXRoIGlkPSJwYXRoMjY1MyIgaW5rc2NhcGU6Y29ubmVjdG9yLWN1cnZhdHVyZT0iMCIgc3R5bGU9ImZpbGw6IzdGQkEwMDsiIGQ9Ik00LjkxLDE5LjIxYzAsMS4zOC0xLjEzLDIuNC0yLjM5LDIuNCAgICAgUzAsMjAuNDYsMCwxOS4yMWMwLTEuMjYsMS4xMy0yLjM4LDIuNTItMi4zOFM0LjkxLDE3Ljk1LDQuOTEsMTkuMjF6Ii8+JiN4YTsJCTwvZz4mI3hhOwk8L2c+JiN4YTs8L2c+JiN4YTs8L3N2Zz4=;" vertex="1" parent="-g1dHvpGHqxtaDHweXaw-47">
          <mxGeometry x="26.360000000000014" y="410" width="63.64" height="40" as="geometry" />
        </mxCell>
        <mxCell id="-g1dHvpGHqxtaDHweXaw-37" value="Senario 3&#xa;Landingzone vending" style="swimlane;startSize=0;swimlaneFillColor=default;verticalAlign=bottom;" vertex="1" parent="1">
          <mxGeometry x="530" y="80" width="207" height="550" as="geometry" />
        </mxCell>
        <mxCell id="-g1dHvpGHqxtaDHweXaw-38" value="" style="image;aspect=fixed;html=1;points=[];align=center;fontSize=12;image=img/lib/azure2/general/Subscriptions.svg;" vertex="1" parent="-g1dHvpGHqxtaDHweXaw-37">
          <mxGeometry x="20" y="10" width="18.59" height="30" as="geometry" />
        </mxCell>
        <mxCell id="-g1dHvpGHqxtaDHweXaw-39" value="Virtual&amp;nbsp;&lt;div&gt;network&lt;/div&gt;" style="image;aspect=fixed;html=1;points=[];align=center;fontSize=12;image=img/lib/azure2/networking/Virtual_Networks.svg;" vertex="1" parent="-g1dHvpGHqxtaDHweXaw-37">
          <mxGeometry x="90" y="95" width="67" height="40" as="geometry" />
        </mxCell>
        <mxCell id="-g1dHvpGHqxtaDHweXaw-40" value="Private&lt;div&gt;DNS&lt;/div&gt;" style="image;sketch=0;aspect=fixed;html=1;points=[];align=center;fontSize=12;image=img/lib/mscae/DNS_Private_Zones.svg;" vertex="1" parent="-g1dHvpGHqxtaDHweXaw-37">
          <mxGeometry x="130" y="319" width="50" height="50" as="geometry" />
        </mxCell>
        <mxCell id="-g1dHvpGHqxtaDHweXaw-41" value="Private Endpoint" style="image;aspect=fixed;html=1;points=[];align=center;fontSize=12;image=img/lib/azure2/other/Private_Endpoints.svg;" vertex="1" parent="-g1dHvpGHqxtaDHweXaw-37">
          <mxGeometry x="30" y="319" width="52.57" height="50" as="geometry" />
        </mxCell>
        <mxCell id="-g1dHvpGHqxtaDHweXaw-46" value="subnet" style="shape=image;verticalLabelPosition=bottom;labelBackgroundColor=#ffffff;verticalAlign=top;aspect=fixed;imageAspect=0;image=data:image/svg+xml,PHN2ZyB4bWxuczpjYz0iaHR0cDovL2NyZWF0aXZlY29tbW9ucy5vcmcvbnMjIiB4bWxuczpkYz0iaHR0cDovL3B1cmwub3JnL2RjL2VsZW1lbnRzLzEuMS8iIHhtbG5zOmlua3NjYXBlPSJodHRwOi8vd3d3Lmlua3NjYXBlLm9yZy9uYW1lc3BhY2VzL2lua3NjYXBlIiB4bWxuczpyZGY9Imh0dHA6Ly93d3cudzMub3JnLzE5OTkvMDIvMjItcmRmLXN5bnRheC1ucyMiIHhtbG5zOnNvZGlwb2RpPSJodHRwOi8vc29kaXBvZGkuc291cmNlZm9yZ2UubmV0L0RURC9zb2RpcG9kaS0wLmR0ZCIgeG1sbnM6c3ZnPSJodHRwOi8vd3d3LnczLm9yZy8yMDAwL3N2ZyIgeG1sbnM9Imh0dHA6Ly93d3cudzMub3JnLzIwMDAvc3ZnIiB4bWxuczp4bGluaz0iaHR0cDovL3d3dy53My5vcmcvMTk5OS94bGluayIgdmVyc2lvbj0iMS4xIiBpZD0ic3ZnMjY1OSIgaW5rc2NhcGU6dmVyc2lvbj0iMC45Mi4zICgyNDA1NTQ2LCAyMDE4LTAzLTExKSIgc29kaXBvZGk6ZG9jbmFtZT0ic3VibmV0cy5zdmciIHg9IjBweCIgeT0iMHB4IiB2aWV3Qm94PSIwIDAgMzQuODQgMjEuNjEiIHN0eWxlPSJlbmFibGUtYmFja2dyb3VuZDpuZXcgMCAwIDM0Ljg0IDIxLjYxOyIgeG1sOnNwYWNlPSJwcmVzZXJ2ZSI+JiN4YTs8c29kaXBvZGk6bmFtZWR2aWV3IGJvcmRlcmNvbG9yPSIjNjY2NjY2IiBib3JkZXJvcGFjaXR5PSIxIiBmaXQtbWFyZ2luLWJvdHRvbT0iMCIgZml0LW1hcmdpbi1sZWZ0PSIwIiBmaXQtbWFyZ2luLXJpZ2h0PSIwIiBmaXQtbWFyZ2luLXRvcD0iMCIgZ3JpZHRvbGVyYW5jZT0iMTAiIGd1aWRldG9sZXJhbmNlPSIxMCIgaWQ9Im5hbWVkdmlldzI2NjEiIGlua3NjYXBlOmN1cnJlbnQtbGF5ZXI9InN2ZzI2NTkiIGlua3NjYXBlOmN4PSIyMy4yMjU5OTEiIGlua3NjYXBlOmN5PSIxNC40MDc5OTQiIGlua3NjYXBlOnBhZ2VvcGFjaXR5PSIwIiBpbmtzY2FwZTpwYWdlc2hhZG93PSIyIiBpbmtzY2FwZTp3aW5kb3ctaGVpZ2h0PSIxMDE3IiBpbmtzY2FwZTp3aW5kb3ctbWF4aW1pemVkPSIxIiBpbmtzY2FwZTp3aW5kb3ctd2lkdGg9IjE5MjAiIGlua3NjYXBlOndpbmRvdy14PSItOCIgaW5rc2NhcGU6d2luZG93LXk9Ii04IiBpbmtzY2FwZTp6b29tPSIzMC4wOTMwMzMiIG9iamVjdHRvbGVyYW5jZT0iMTAiIHBhZ2Vjb2xvcj0iI2ZmZmZmZiIgc2hvd2dyaWQ9ImZhbHNlIj4mI3hhOwk8L3NvZGlwb2RpOm5hbWVkdmlldz4mI3hhOzxnIGlkPSJnMjY1NyIgdHJhbnNmb3JtPSJ0cmFuc2xhdGUoLTQuMjMzMTc0OWUtNSkiPiYjeGE7CTx0aXRsZSBpZD0idGl0bGUyNjM3Ij5QYWdlLTE8L3RpdGxlPiYjeGE7CTxnIGlkPSJncm91cDk1MjItMSI+JiN4YTsJCTx0aXRsZSBpZD0idGl0bGUyNjM5Ij5TdWJuZXRzPC90aXRsZT4mI3hhOwkJPGcgaWQ9InNoYXBlOTUyMy0yIiB0cmFuc2Zvcm09InRyYW5zbGF0ZSgyMi42MTMpIj4mI3hhOwkJCTx0aXRsZSBpZD0idGl0bGUyNjQxIj5TaGVldC45NTIzPC90aXRsZT4mI3hhOwkJCTxwYXRoIGlkPSJwYXRoMjY0MyIgaW5rc2NhcGU6Y29ubmVjdG9yLWN1cnZhdHVyZT0iMCIgc3R5bGU9ImZpbGw6IzM5OTlDNjsiIGQ9Ik0xMi4yMywxMC42OEw5Ljg0LDguMjlMMS4zOSwwTDAsMS4yNmw5LjU4LDkuNDIgICAgIEwwLDIwLjM1bDEuMzksMS4yNmw4LjQ1LTguM0wxMi4yMywxMC42OHoiLz4mI3hhOwkJPC9nPiYjeGE7CQk8ZyBpZD0ic2hhcGU5NTI0LTQiPiYjeGE7CQkJPHRpdGxlIGlkPSJ0aXRsZTI2NDYiPlNoZWV0Ljk1MjQ8L3RpdGxlPiYjeGE7CQkJPHBhdGggaWQ9InBhdGgyNjQ4IiBpbmtzY2FwZTpjb25uZWN0b3ItY3VydmF0dXJlPSIwIiBzdHlsZT0iZmlsbDojMzk5OUM2OyIgZD0iTTAsMTAuNjhsMi4zOS0yLjM5TDEwLjg0LDBsMS4zOSwxLjI2bC05LjU4LDkuNDIgICAgIGw5LjU4LDkuNjdsLTEuMzksMS4yNmwtOC40NS04LjNMMCwxMC42OHoiLz4mI3hhOwkJPC9nPiYjeGE7CQk8ZyBpZD0ic2hhcGU5NTI1LTYiIHRyYW5zZm9ybT0idHJhbnNsYXRlKDE0Ljg2ODUsLTguNTMxOTcpIj4mI3hhOwkJCTx0aXRsZSBpZD0idGl0bGUyNjUxIj5TaGVldC45NTI1PC90aXRsZT4mI3hhOwkJCTxwYXRoIGlkPSJwYXRoMjY1MyIgaW5rc2NhcGU6Y29ubmVjdG9yLWN1cnZhdHVyZT0iMCIgc3R5bGU9ImZpbGw6IzdGQkEwMDsiIGQ9Ik00LjkxLDE5LjIxYzAsMS4zOC0xLjEzLDIuNC0yLjM5LDIuNCAgICAgUzAsMjAuNDYsMCwxOS4yMWMwLTEuMjYsMS4xMy0yLjM4LDIuNTItMi4zOFM0LjkxLDE3Ljk1LDQuOTEsMTkuMjF6Ii8+JiN4YTsJCTwvZz4mI3hhOwk8L2c+JiN4YTs8L2c+JiN4YTs8L3N2Zz4=;" vertex="1" parent="-g1dHvpGHqxtaDHweXaw-37">
          <mxGeometry x="26.360000000000014" y="410" width="63.64" height="40" as="geometry" />
        </mxCell>
        <mxCell id="-g1dHvpGHqxtaDHweXaw-29" value="Senario 2&#xa;Automation DNS" style="swimlane;startSize=0;swimlaneFillColor=default;align=center;verticalAlign=bottom;" vertex="1" parent="1">
          <mxGeometry x="290" y="80" width="207" height="550" as="geometry" />
        </mxCell>
        <mxCell id="-g1dHvpGHqxtaDHweXaw-30" value="" style="image;aspect=fixed;html=1;points=[];align=center;fontSize=12;image=img/lib/azure2/general/Subscriptions.svg;" vertex="1" parent="-g1dHvpGHqxtaDHweXaw-29">
          <mxGeometry x="20" y="10" width="18.59" height="30" as="geometry" />
        </mxCell>
        <mxCell id="-g1dHvpGHqxtaDHweXaw-31" value="Virtual&amp;nbsp;&lt;div&gt;network&lt;/div&gt;" style="image;aspect=fixed;html=1;points=[];align=center;fontSize=12;image=img/lib/azure2/networking/Virtual_Networks.svg;" vertex="1" parent="-g1dHvpGHqxtaDHweXaw-29">
          <mxGeometry x="90" y="95" width="67" height="40" as="geometry" />
        </mxCell>
        <mxCell id="-g1dHvpGHqxtaDHweXaw-33" value="Private&lt;div&gt;DNS&lt;/div&gt;" style="image;sketch=0;aspect=fixed;html=1;points=[];align=center;fontSize=12;image=img/lib/mscae/DNS_Private_Zones.svg;" vertex="1" parent="-g1dHvpGHqxtaDHweXaw-29">
          <mxGeometry x="20" y="90" width="50" height="50" as="geometry" />
        </mxCell>
        <mxCell id="-g1dHvpGHqxtaDHweXaw-36" value="Private Endpoint" style="image;aspect=fixed;html=1;points=[];align=center;fontSize=12;image=img/lib/azure2/other/Private_Endpoints.svg;" vertex="1" parent="-g1dHvpGHqxtaDHweXaw-29">
          <mxGeometry x="30" y="319" width="52.57" height="50" as="geometry" />
        </mxCell>
        <mxCell id="-g1dHvpGHqxtaDHweXaw-43" value="Private link" style="image;aspect=fixed;html=1;points=[];align=center;fontSize=12;image=img/lib/azure2/networking/Private_Link.svg;" vertex="1" parent="-g1dHvpGHqxtaDHweXaw-29">
          <mxGeometry x="17.810000000000002" y="180.00000000000003" width="54.37" height="49.83" as="geometry" />
        </mxCell>
        <mxCell id="-g1dHvpGHqxtaDHweXaw-44" value="subnet" style="shape=image;verticalLabelPosition=bottom;labelBackgroundColor=#ffffff;verticalAlign=top;aspect=fixed;imageAspect=0;image=data:image/svg+xml,PHN2ZyB4bWxuczpjYz0iaHR0cDovL2NyZWF0aXZlY29tbW9ucy5vcmcvbnMjIiB4bWxuczpkYz0iaHR0cDovL3B1cmwub3JnL2RjL2VsZW1lbnRzLzEuMS8iIHhtbG5zOmlua3NjYXBlPSJodHRwOi8vd3d3Lmlua3NjYXBlLm9yZy9uYW1lc3BhY2VzL2lua3NjYXBlIiB4bWxuczpyZGY9Imh0dHA6Ly93d3cudzMub3JnLzE5OTkvMDIvMjItcmRmLXN5bnRheC1ucyMiIHhtbG5zOnNvZGlwb2RpPSJodHRwOi8vc29kaXBvZGkuc291cmNlZm9yZ2UubmV0L0RURC9zb2RpcG9kaS0wLmR0ZCIgeG1sbnM6c3ZnPSJodHRwOi8vd3d3LnczLm9yZy8yMDAwL3N2ZyIgeG1sbnM9Imh0dHA6Ly93d3cudzMub3JnLzIwMDAvc3ZnIiB4bWxuczp4bGluaz0iaHR0cDovL3d3dy53My5vcmcvMTk5OS94bGluayIgdmVyc2lvbj0iMS4xIiBpZD0ic3ZnMjY1OSIgaW5rc2NhcGU6dmVyc2lvbj0iMC45Mi4zICgyNDA1NTQ2LCAyMDE4LTAzLTExKSIgc29kaXBvZGk6ZG9jbmFtZT0ic3VibmV0cy5zdmciIHg9IjBweCIgeT0iMHB4IiB2aWV3Qm94PSIwIDAgMzQuODQgMjEuNjEiIHN0eWxlPSJlbmFibGUtYmFja2dyb3VuZDpuZXcgMCAwIDM0Ljg0IDIxLjYxOyIgeG1sOnNwYWNlPSJwcmVzZXJ2ZSI+JiN4YTs8c29kaXBvZGk6bmFtZWR2aWV3IGJvcmRlcmNvbG9yPSIjNjY2NjY2IiBib3JkZXJvcGFjaXR5PSIxIiBmaXQtbWFyZ2luLWJvdHRvbT0iMCIgZml0LW1hcmdpbi1sZWZ0PSIwIiBmaXQtbWFyZ2luLXJpZ2h0PSIwIiBmaXQtbWFyZ2luLXRvcD0iMCIgZ3JpZHRvbGVyYW5jZT0iMTAiIGd1aWRldG9sZXJhbmNlPSIxMCIgaWQ9Im5hbWVkdmlldzI2NjEiIGlua3NjYXBlOmN1cnJlbnQtbGF5ZXI9InN2ZzI2NTkiIGlua3NjYXBlOmN4PSIyMy4yMjU5OTEiIGlua3NjYXBlOmN5PSIxNC40MDc5OTQiIGlua3NjYXBlOnBhZ2VvcGFjaXR5PSIwIiBpbmtzY2FwZTpwYWdlc2hhZG93PSIyIiBpbmtzY2FwZTp3aW5kb3ctaGVpZ2h0PSIxMDE3IiBpbmtzY2FwZTp3aW5kb3ctbWF4aW1pemVkPSIxIiBpbmtzY2FwZTp3aW5kb3ctd2lkdGg9IjE5MjAiIGlua3NjYXBlOndpbmRvdy14PSItOCIgaW5rc2NhcGU6d2luZG93LXk9Ii04IiBpbmtzY2FwZTp6b29tPSIzMC4wOTMwMzMiIG9iamVjdHRvbGVyYW5jZT0iMTAiIHBhZ2Vjb2xvcj0iI2ZmZmZmZiIgc2hvd2dyaWQ9ImZhbHNlIj4mI3hhOwk8L3NvZGlwb2RpOm5hbWVkdmlldz4mI3hhOzxnIGlkPSJnMjY1NyIgdHJhbnNmb3JtPSJ0cmFuc2xhdGUoLTQuMjMzMTc0OWUtNSkiPiYjeGE7CTx0aXRsZSBpZD0idGl0bGUyNjM3Ij5QYWdlLTE8L3RpdGxlPiYjeGE7CTxnIGlkPSJncm91cDk1MjItMSI+JiN4YTsJCTx0aXRsZSBpZD0idGl0bGUyNjM5Ij5TdWJuZXRzPC90aXRsZT4mI3hhOwkJPGcgaWQ9InNoYXBlOTUyMy0yIiB0cmFuc2Zvcm09InRyYW5zbGF0ZSgyMi42MTMpIj4mI3hhOwkJCTx0aXRsZSBpZD0idGl0bGUyNjQxIj5TaGVldC45NTIzPC90aXRsZT4mI3hhOwkJCTxwYXRoIGlkPSJwYXRoMjY0MyIgaW5rc2NhcGU6Y29ubmVjdG9yLWN1cnZhdHVyZT0iMCIgc3R5bGU9ImZpbGw6IzM5OTlDNjsiIGQ9Ik0xMi4yMywxMC42OEw5Ljg0LDguMjlMMS4zOSwwTDAsMS4yNmw5LjU4LDkuNDIgICAgIEwwLDIwLjM1bDEuMzksMS4yNmw4LjQ1LTguM0wxMi4yMywxMC42OHoiLz4mI3hhOwkJPC9nPiYjeGE7CQk8ZyBpZD0ic2hhcGU5NTI0LTQiPiYjeGE7CQkJPHRpdGxlIGlkPSJ0aXRsZTI2NDYiPlNoZWV0Ljk1MjQ8L3RpdGxlPiYjeGE7CQkJPHBhdGggaWQ9InBhdGgyNjQ4IiBpbmtzY2FwZTpjb25uZWN0b3ItY3VydmF0dXJlPSIwIiBzdHlsZT0iZmlsbDojMzk5OUM2OyIgZD0iTTAsMTAuNjhsMi4zOS0yLjM5TDEwLjg0LDBsMS4zOSwxLjI2bC05LjU4LDkuNDIgICAgIGw5LjU4LDkuNjdsLTEuMzksMS4yNmwtOC40NS04LjNMMCwxMC42OHoiLz4mI3hhOwkJPC9nPiYjeGE7CQk8ZyBpZD0ic2hhcGU5NTI1LTYiIHRyYW5zZm9ybT0idHJhbnNsYXRlKDE0Ljg2ODUsLTguNTMxOTcpIj4mI3hhOwkJCTx0aXRsZSBpZD0idGl0bGUyNjUxIj5TaGVldC45NTI1PC90aXRsZT4mI3hhOwkJCTxwYXRoIGlkPSJwYXRoMjY1MyIgaW5rc2NhcGU6Y29ubmVjdG9yLWN1cnZhdHVyZT0iMCIgc3R5bGU9ImZpbGw6IzdGQkEwMDsiIGQ9Ik00LjkxLDE5LjIxYzAsMS4zOC0xLjEzLDIuNC0yLjM5LDIuNCAgICAgUzAsMjAuNDYsMCwxOS4yMWMwLTEuMjYsMS4xMy0yLjM4LDIuNTItMi4zOFM0LjkxLDE3Ljk1LDQuOTEsMTkuMjF6Ii8+JiN4YTsJCTwvZz4mI3hhOwk8L2c+JiN4YTs8L2c+JiN4YTs8L3N2Zz4=;" vertex="1" parent="-g1dHvpGHqxtaDHweXaw-29">
          <mxGeometry x="110" y="329" width="63.64" height="40" as="geometry" />
        </mxCell>
        <mxCell id="-g1dHvpGHqxtaDHweXaw-3" value="&#xa;Senario 1&#xa;Full Automation" style="swimlane;startSize=0;swimlaneFillColor=default;verticalAlign=bottom;" vertex="1" parent="1">
          <mxGeometry x="50" y="80" width="207" height="550" as="geometry" />
        </mxCell>
        <mxCell id="-g1dHvpGHqxtaDHweXaw-4" value="" style="image;aspect=fixed;html=1;points=[];align=center;fontSize=12;image=img/lib/azure2/general/Subscriptions.svg;" vertex="1" parent="-g1dHvpGHqxtaDHweXaw-3">
          <mxGeometry x="20" y="10" width="18.59" height="30" as="geometry" />
        </mxCell>
        <mxCell id="-g1dHvpGHqxtaDHweXaw-9" value="Virtual&amp;nbsp;&lt;div&gt;network&lt;/div&gt;" style="image;aspect=fixed;html=1;points=[];align=center;fontSize=12;image=img/lib/azure2/networking/Virtual_Networks.svg;" vertex="1" parent="-g1dHvpGHqxtaDHweXaw-3">
          <mxGeometry x="110" y="95" width="67" height="40" as="geometry" />
        </mxCell>
        <mxCell id="-g1dHvpGHqxtaDHweXaw-21" value="Private&lt;div&gt;DNS&lt;/div&gt;" style="image;sketch=0;aspect=fixed;html=1;points=[];align=center;fontSize=12;image=img/lib/mscae/DNS_Private_Zones.svg;" vertex="1" parent="-g1dHvpGHqxtaDHweXaw-3">
          <mxGeometry x="28" y="90" width="50" height="50" as="geometry" />
        </mxCell>
        <mxCell id="-g1dHvpGHqxtaDHweXaw-42" value="Private link" style="image;aspect=fixed;html=1;points=[];align=center;fontSize=12;image=img/lib/azure2/networking/Private_Link.svg;" vertex="1" parent="-g1dHvpGHqxtaDHweXaw-3">
          <mxGeometry x="28" y="180.00000000000003" width="54.37" height="49.83" as="geometry" />
        </mxCell>
        <mxCell id="-g1dHvpGHqxtaDHweXaw-45" value="subnet" style="shape=image;verticalLabelPosition=bottom;labelBackgroundColor=#ffffff;verticalAlign=top;aspect=fixed;imageAspect=0;image=data:image/svg+xml,PHN2ZyB4bWxuczpjYz0iaHR0cDovL2NyZWF0aXZlY29tbW9ucy5vcmcvbnMjIiB4bWxuczpkYz0iaHR0cDovL3B1cmwub3JnL2RjL2VsZW1lbnRzLzEuMS8iIHhtbG5zOmlua3NjYXBlPSJodHRwOi8vd3d3Lmlua3NjYXBlLm9yZy9uYW1lc3BhY2VzL2lua3NjYXBlIiB4bWxuczpyZGY9Imh0dHA6Ly93d3cudzMub3JnLzE5OTkvMDIvMjItcmRmLXN5bnRheC1ucyMiIHhtbG5zOnNvZGlwb2RpPSJodHRwOi8vc29kaXBvZGkuc291cmNlZm9yZ2UubmV0L0RURC9zb2RpcG9kaS0wLmR0ZCIgeG1sbnM6c3ZnPSJodHRwOi8vd3d3LnczLm9yZy8yMDAwL3N2ZyIgeG1sbnM9Imh0dHA6Ly93d3cudzMub3JnLzIwMDAvc3ZnIiB4bWxuczp4bGluaz0iaHR0cDovL3d3dy53My5vcmcvMTk5OS94bGluayIgdmVyc2lvbj0iMS4xIiBpZD0ic3ZnMjY1OSIgaW5rc2NhcGU6dmVyc2lvbj0iMC45Mi4zICgyNDA1NTQ2LCAyMDE4LTAzLTExKSIgc29kaXBvZGk6ZG9jbmFtZT0ic3VibmV0cy5zdmciIHg9IjBweCIgeT0iMHB4IiB2aWV3Qm94PSIwIDAgMzQuODQgMjEuNjEiIHN0eWxlPSJlbmFibGUtYmFja2dyb3VuZDpuZXcgMCAwIDM0Ljg0IDIxLjYxOyIgeG1sOnNwYWNlPSJwcmVzZXJ2ZSI+JiN4YTs8c29kaXBvZGk6bmFtZWR2aWV3IGJvcmRlcmNvbG9yPSIjNjY2NjY2IiBib3JkZXJvcGFjaXR5PSIxIiBmaXQtbWFyZ2luLWJvdHRvbT0iMCIgZml0LW1hcmdpbi1sZWZ0PSIwIiBmaXQtbWFyZ2luLXJpZ2h0PSIwIiBmaXQtbWFyZ2luLXRvcD0iMCIgZ3JpZHRvbGVyYW5jZT0iMTAiIGd1aWRldG9sZXJhbmNlPSIxMCIgaWQ9Im5hbWVkdmlldzI2NjEiIGlua3NjYXBlOmN1cnJlbnQtbGF5ZXI9InN2ZzI2NTkiIGlua3NjYXBlOmN4PSIyMy4yMjU5OTEiIGlua3NjYXBlOmN5PSIxNC40MDc5OTQiIGlua3NjYXBlOnBhZ2VvcGFjaXR5PSIwIiBpbmtzY2FwZTpwYWdlc2hhZG93PSIyIiBpbmtzY2FwZTp3aW5kb3ctaGVpZ2h0PSIxMDE3IiBpbmtzY2FwZTp3aW5kb3ctbWF4aW1pemVkPSIxIiBpbmtzY2FwZTp3aW5kb3ctd2lkdGg9IjE5MjAiIGlua3NjYXBlOndpbmRvdy14PSItOCIgaW5rc2NhcGU6d2luZG93LXk9Ii04IiBpbmtzY2FwZTp6b29tPSIzMC4wOTMwMzMiIG9iamVjdHRvbGVyYW5jZT0iMTAiIHBhZ2Vjb2xvcj0iI2ZmZmZmZiIgc2hvd2dyaWQ9ImZhbHNlIj4mI3hhOwk8L3NvZGlwb2RpOm5hbWVkdmlldz4mI3hhOzxnIGlkPSJnMjY1NyIgdHJhbnNmb3JtPSJ0cmFuc2xhdGUoLTQuMjMzMTc0OWUtNSkiPiYjeGE7CTx0aXRsZSBpZD0idGl0bGUyNjM3Ij5QYWdlLTE8L3RpdGxlPiYjeGE7CTxnIGlkPSJncm91cDk1MjItMSI+JiN4YTsJCTx0aXRsZSBpZD0idGl0bGUyNjM5Ij5TdWJuZXRzPC90aXRsZT4mI3hhOwkJPGcgaWQ9InNoYXBlOTUyMy0yIiB0cmFuc2Zvcm09InRyYW5zbGF0ZSgyMi42MTMpIj4mI3hhOwkJCTx0aXRsZSBpZD0idGl0bGUyNjQxIj5TaGVldC45NTIzPC90aXRsZT4mI3hhOwkJCTxwYXRoIGlkPSJwYXRoMjY0MyIgaW5rc2NhcGU6Y29ubmVjdG9yLWN1cnZhdHVyZT0iMCIgc3R5bGU9ImZpbGw6IzM5OTlDNjsiIGQ9Ik0xMi4yMywxMC42OEw5Ljg0LDguMjlMMS4zOSwwTDAsMS4yNmw5LjU4LDkuNDIgICAgIEwwLDIwLjM1bDEuMzksMS4yNmw4LjQ1LTguM0wxMi4yMywxMC42OHoiLz4mI3hhOwkJPC9nPiYjeGE7CQk8ZyBpZD0ic2hhcGU5NTI0LTQiPiYjeGE7CQkJPHRpdGxlIGlkPSJ0aXRsZTI2NDYiPlNoZWV0Ljk1MjQ8L3RpdGxlPiYjeGE7CQkJPHBhdGggaWQ9InBhdGgyNjQ4IiBpbmtzY2FwZTpjb25uZWN0b3ItY3VydmF0dXJlPSIwIiBzdHlsZT0iZmlsbDojMzk5OUM2OyIgZD0iTTAsMTAuNjhsMi4zOS0yLjM5TDEwLjg0LDBsMS4zOSwxLjI2bC05LjU4LDkuNDIgICAgIGw5LjU4LDkuNjdsLTEuMzksMS4yNmwtOC40NS04LjNMMCwxMC42OHoiLz4mI3hhOwkJPC9nPiYjeGE7CQk8ZyBpZD0ic2hhcGU5NTI1LTYiIHRyYW5zZm9ybT0idHJhbnNsYXRlKDE0Ljg2ODUsLTguNTMxOTcpIj4mI3hhOwkJCTx0aXRsZSBpZD0idGl0bGUyNjUxIj5TaGVldC45NTI1PC90aXRsZT4mI3hhOwkJCTxwYXRoIGlkPSJwYXRoMjY1MyIgaW5rc2NhcGU6Y29ubmVjdG9yLWN1cnZhdHVyZT0iMCIgc3R5bGU9ImZpbGw6IzdGQkEwMDsiIGQ9Ik00LjkxLDE5LjIxYzAsMS4zOC0xLjEzLDIuNC0yLjM5LDIuNCAgICAgUzAsMjAuNDYsMCwxOS4yMWMwLTEuMjYsMS4xMy0yLjM4LDIuNTItMi4zOFM0LjkxLDE3Ljk1LDQuOTEsMTkuMjF6Ii8+JiN4YTsJCTwvZz4mI3hhOwk8L2c+JiN4YTs8L2c+JiN4YTs8L3N2Zz4=;" vertex="1" parent="-g1dHvpGHqxtaDHweXaw-3">
          <mxGeometry x="120" y="334" width="57" height="35.83" as="geometry" />
        </mxCell>
        <mxCell id="-g1dHvpGHqxtaDHweXaw-10" value="&#xa;Deployed by customer" style="swimlane;startSize=0;fillColor=#3333FF;strokeColor=default;dashed=1;swimlaneFillColor=none;align=right;" vertex="1" parent="1">
          <mxGeometry x="40" y="130" width="1100" height="210" as="geometry">
            <mxRectangle x="40" y="310" width="160" height="40" as="alternateBounds" />
          </mxGeometry>
        </mxCell>
        <mxCell id="-g1dHvpGHqxtaDHweXaw-17" value="Private Endpoint" style="image;aspect=fixed;html=1;points=[];align=center;fontSize=12;image=img/lib/azure2/other/Private_Endpoints.svg;" vertex="1" parent="-g1dHvpGHqxtaDHweXaw-10">
          <mxGeometry x="107.22000000000003" y="129.91500000000002" width="52.57" height="50" as="geometry" />
        </mxCell>
        <mxCell id="-g1dHvpGHqxtaDHweXaw-12" value="&#xa;Deployed by IPAM solution" style="swimlane;startSize=0;dashed=1;fillColor=#0000FF;align=right;" vertex="1" parent="1">
          <mxGeometry x="40" y="370" width="1100" height="210" as="geometry" />
        </mxCell>
        <mxCell id="-g1dHvpGHqxtaDHweXaw-50" value="Private&lt;div&gt;DNS&lt;/div&gt;" style="image;sketch=0;aspect=fixed;html=1;points=[];align=center;fontSize=12;image=img/lib/mscae/DNS_Private_Zones.svg;" vertex="1" parent="-g1dHvpGHqxtaDHweXaw-12">
          <mxGeometry x="840" y="115" width="50" height="50" as="geometry" />
        </mxCell>
        <mxCell id="-g1dHvpGHqxtaDHweXaw-49" value="Virtual&amp;nbsp;&lt;div&gt;network&lt;/div&gt;" style="image;aspect=fixed;html=1;points=[];align=center;fontSize=12;image=img/lib/azure2/networking/Virtual_Networks.svg;" vertex="1" parent="-g1dHvpGHqxtaDHweXaw-12">
          <mxGeometry x="831.5" y="34" width="67" height="40" as="geometry" />
        </mxCell>
      </root>
    </mxGraphModel>
  </diagram>
</mxfile>
